<svg width="262" height="94" viewBox="0 0 262 94" fill="none" xmlns="http://www.w3.org/2000/svg">
<path d="M0.325195 83.9863C0.325195 81.0664 1.2985 78.6966 3.24512 76.877C5.23405 75.0573 7.70964 74.1475 10.6719 74.1475C13.6764 74.1475 16.152 75.0573 18.0986 76.877C20.0876 78.6966 21.082 81.0664 21.082 83.9863C21.082 86.8639 20.1087 89.2126 18.1621 91.0322C16.2155 92.8096 13.7188 93.6982 10.6719 93.6982C7.66732 93.6982 5.19173 92.8096 3.24512 91.0322C1.2985 89.2126 0.325195 86.8639 0.325195 83.9863ZM0.325195 31.999C0.325195 29.0791 1.2985 26.7093 3.24512 24.8896C5.23405 23.07 7.70964 22.1602 10.6719 22.1602C13.6764 22.1602 16.152 23.07 18.0986 24.8896C20.0876 26.7093 21.082 29.0791 21.082 31.999C21.082 34.8766 20.1087 37.2253 18.1621 39.0449C16.2155 40.8223 13.7188 41.7109 10.6719 41.7109C7.66732 41.7109 5.19173 40.8223 3.24512 39.0449C1.2985 37.2253 0.325195 34.8766 0.325195 31.999ZM37.332 93V0.578125H65.7695C73.8945 0.578125 81.152 2.41895 87.542 6.10059C93.9743 9.73991 98.9889 14.945 102.586 21.7158C106.183 28.4443 107.981 36.1038 107.981 44.6943V48.9473C107.981 57.5378 106.204 65.1761 102.649 71.8623C99.137 78.5485 94.1647 83.7324 87.7324 87.4141C81.3001 91.0957 74.0426 92.9577 65.96 93H37.332ZM56.375 16.0029V77.7021H65.5791C73.027 77.7021 78.7188 75.2689 82.6543 70.4023C86.5898 65.5358 88.5999 58.5745 88.6846 49.5186V44.6309C88.6846 35.2363 86.738 28.127 82.8447 23.3027C78.9515 18.4362 73.2598 16.0029 65.7695 16.0029H56.375ZM153.938 83.9863C153.938 81.0664 154.912 78.6966 156.858 76.877C158.847 75.0573 161.323 74.1475 164.285 74.1475C167.29 74.1475 169.765 75.0573 171.712 76.877C173.701 78.6966 174.695 81.0664 174.695 83.9863C174.695 86.8639 173.722 89.2126 171.775 91.0322C169.829 92.8096 167.332 93.6982 164.285 93.6982C161.281 93.6982 158.805 92.8096 156.858 91.0322C154.912 89.2126 153.938 86.8639 153.938 83.9863ZM153.938 31.999C153.938 29.0791 154.912 26.7093 156.858 24.8896C158.847 23.07 161.323 22.1602 164.285 22.1602C167.29 22.1602 169.765 23.07 171.712 24.8896C173.701 26.7093 174.695 29.0791 174.695 31.999C174.695 34.8766 173.722 37.2253 171.775 39.0449C169.829 40.8223 167.332 41.7109 164.285 41.7109C161.281 41.7109 158.805 40.8223 156.858 39.0449C154.912 37.2253 153.938 34.8766 153.938 31.999ZM209.988 60.4365V93H190.945V0.578125H227C233.94 0.578125 240.034 1.84766 245.281 4.38672C250.571 6.92578 254.633 10.5439 257.469 15.2412C260.304 19.8962 261.722 25.207 261.722 31.1738C261.722 40.2298 258.611 47.3815 252.391 52.6289C246.212 57.834 237.643 60.4365 226.683 60.4365H209.988ZM209.988 45.0117H227C232.036 45.0117 235.866 43.8268 238.489 41.457C241.155 39.0872 242.488 35.7018 242.488 31.3008C242.488 26.7728 241.155 23.1123 238.489 20.3193C235.823 17.5264 232.142 16.0876 227.444 16.0029H209.988V45.0117Z" fill="black" fill-opacity="0.05"/>
</svg>
