<svg width="22" height="20" viewBox="0 0 22 20" fill="none" xmlns="http://www.w3.org/2000/svg">
<path d="M15.17 10L21.4244 4.3142C22.1919 3.61648 22.1919 2.48523 21.4244 1.78693L20.0344 0.523295C19.2669 -0.174432 18.0225 -0.174432 17.2544 0.523295L11 6.20909L4.74563 0.523295C3.97813 -0.174432 2.73375 -0.174432 1.96563 0.523295L0.575625 1.78693C-0.191875 2.48466 -0.191875 3.61591 0.575625 4.3142L6.83 10L0.575625 15.6858C-0.191875 16.3835 -0.191875 17.5148 0.575625 18.2131L1.96563 19.4767C2.73312 20.1744 3.97813 20.1744 4.74563 19.4767L11 13.7909L17.2544 19.4767C18.0219 20.1744 19.2669 20.1744 20.0344 19.4767L21.4244 18.2131C22.1919 17.5153 22.1919 16.3841 21.4244 15.6858L15.17 10Z" fill="white"/>
</svg>
